<mxfile host="app.diagrams.net" modified="2024-05-08T14:29:37.107Z" agent="Mozilla/5.0 (Windows NT 10.0; Win64; x64) AppleWebKit/537.36 (KHTML, like Gecko) Chrome/124.0.0.0 Safari/537.36" etag="TAS4fnSEKq6ZvEiRzQx0" version="24.3.1" type="device">
  <diagram name="หน้า-1" id="lGFt8jssTgGZ6eAb4FzK">
    <mxGraphModel dx="1050" dy="617" grid="1" gridSize="10" guides="1" tooltips="1" connect="1" arrows="1" fold="1" page="1" pageScale="1" pageWidth="827" pageHeight="1169" math="0" shadow="0">
      <root>
        <mxCell id="0" />
        <mxCell id="1" parent="0" />
        <mxCell id="sUJI07cc3r80qlHOVlr8-1" value="Table" style="shape=table;startSize=30;container=1;collapsible=0;childLayout=tableLayout;strokeColor=default;fontSize=16;shadow=1;" vertex="1" parent="1">
          <mxGeometry x="100" y="150" width="700" height="150" as="geometry" />
        </mxCell>
        <mxCell id="sUJI07cc3r80qlHOVlr8-2" value="" style="shape=tableRow;horizontal=0;startSize=0;swimlaneHead=0;swimlaneBody=0;strokeColor=inherit;top=0;left=0;bottom=0;right=0;collapsible=0;dropTarget=0;fillColor=none;points=[[0,0.5],[1,0.5]];portConstraint=eastwest;fontSize=16;" vertex="1" parent="sUJI07cc3r80qlHOVlr8-1">
          <mxGeometry y="30" width="700" height="40" as="geometry" />
        </mxCell>
        <mxCell id="sUJI07cc3r80qlHOVlr8-3" value="" style="shape=partialRectangle;html=1;whiteSpace=wrap;connectable=0;strokeColor=inherit;overflow=hidden;fillColor=none;top=0;left=0;bottom=0;right=0;pointerEvents=1;fontSize=16;" vertex="1" parent="sUJI07cc3r80qlHOVlr8-2">
          <mxGeometry width="233" height="40" as="geometry">
            <mxRectangle width="233" height="40" as="alternateBounds" />
          </mxGeometry>
        </mxCell>
        <mxCell id="sUJI07cc3r80qlHOVlr8-4" value="" style="shape=partialRectangle;html=1;whiteSpace=wrap;connectable=0;strokeColor=inherit;overflow=hidden;fillColor=none;top=0;left=0;bottom=0;right=0;pointerEvents=1;fontSize=16;" vertex="1" parent="sUJI07cc3r80qlHOVlr8-2">
          <mxGeometry x="233" width="234" height="40" as="geometry">
            <mxRectangle width="234" height="40" as="alternateBounds" />
          </mxGeometry>
        </mxCell>
        <mxCell id="sUJI07cc3r80qlHOVlr8-5" value="" style="shape=partialRectangle;html=1;whiteSpace=wrap;connectable=0;strokeColor=inherit;overflow=hidden;fillColor=none;top=0;left=0;bottom=0;right=0;pointerEvents=1;fontSize=16;" vertex="1" parent="sUJI07cc3r80qlHOVlr8-2">
          <mxGeometry x="467" width="233" height="40" as="geometry">
            <mxRectangle width="233" height="40" as="alternateBounds" />
          </mxGeometry>
        </mxCell>
        <mxCell id="sUJI07cc3r80qlHOVlr8-6" value="" style="shape=tableRow;horizontal=0;startSize=0;swimlaneHead=0;swimlaneBody=0;strokeColor=inherit;top=0;left=0;bottom=0;right=0;collapsible=0;dropTarget=0;fillColor=none;points=[[0,0.5],[1,0.5]];portConstraint=eastwest;fontSize=16;" vertex="1" parent="sUJI07cc3r80qlHOVlr8-1">
          <mxGeometry y="70" width="700" height="40" as="geometry" />
        </mxCell>
        <mxCell id="sUJI07cc3r80qlHOVlr8-7" value="" style="shape=partialRectangle;html=1;whiteSpace=wrap;connectable=0;strokeColor=inherit;overflow=hidden;fillColor=none;top=0;left=0;bottom=0;right=0;pointerEvents=1;fontSize=16;" vertex="1" parent="sUJI07cc3r80qlHOVlr8-6">
          <mxGeometry width="233" height="40" as="geometry">
            <mxRectangle width="233" height="40" as="alternateBounds" />
          </mxGeometry>
        </mxCell>
        <mxCell id="sUJI07cc3r80qlHOVlr8-8" value="" style="shape=partialRectangle;html=1;whiteSpace=wrap;connectable=0;strokeColor=inherit;overflow=hidden;fillColor=none;top=0;left=0;bottom=0;right=0;pointerEvents=1;fontSize=16;" vertex="1" parent="sUJI07cc3r80qlHOVlr8-6">
          <mxGeometry x="233" width="234" height="40" as="geometry">
            <mxRectangle width="234" height="40" as="alternateBounds" />
          </mxGeometry>
        </mxCell>
        <mxCell id="sUJI07cc3r80qlHOVlr8-9" value="" style="shape=partialRectangle;html=1;whiteSpace=wrap;connectable=0;strokeColor=inherit;overflow=hidden;fillColor=none;top=0;left=0;bottom=0;right=0;pointerEvents=1;fontSize=16;" vertex="1" parent="sUJI07cc3r80qlHOVlr8-6">
          <mxGeometry x="467" width="233" height="40" as="geometry">
            <mxRectangle width="233" height="40" as="alternateBounds" />
          </mxGeometry>
        </mxCell>
        <mxCell id="sUJI07cc3r80qlHOVlr8-10" value="" style="shape=tableRow;horizontal=0;startSize=0;swimlaneHead=0;swimlaneBody=0;strokeColor=inherit;top=0;left=0;bottom=0;right=0;collapsible=0;dropTarget=0;fillColor=none;points=[[0,0.5],[1,0.5]];portConstraint=eastwest;fontSize=16;" vertex="1" parent="sUJI07cc3r80qlHOVlr8-1">
          <mxGeometry y="110" width="700" height="40" as="geometry" />
        </mxCell>
        <mxCell id="sUJI07cc3r80qlHOVlr8-11" value="" style="shape=partialRectangle;html=1;whiteSpace=wrap;connectable=0;strokeColor=inherit;overflow=hidden;fillColor=none;top=0;left=0;bottom=0;right=0;pointerEvents=1;fontSize=16;" vertex="1" parent="sUJI07cc3r80qlHOVlr8-10">
          <mxGeometry width="233" height="40" as="geometry">
            <mxRectangle width="233" height="40" as="alternateBounds" />
          </mxGeometry>
        </mxCell>
        <mxCell id="sUJI07cc3r80qlHOVlr8-12" value="" style="shape=partialRectangle;html=1;whiteSpace=wrap;connectable=0;strokeColor=inherit;overflow=hidden;fillColor=none;top=0;left=0;bottom=0;right=0;pointerEvents=1;fontSize=16;" vertex="1" parent="sUJI07cc3r80qlHOVlr8-10">
          <mxGeometry x="233" width="234" height="40" as="geometry">
            <mxRectangle width="234" height="40" as="alternateBounds" />
          </mxGeometry>
        </mxCell>
        <mxCell id="sUJI07cc3r80qlHOVlr8-13" value="" style="shape=partialRectangle;html=1;whiteSpace=wrap;connectable=0;strokeColor=inherit;overflow=hidden;fillColor=none;top=0;left=0;bottom=0;right=0;pointerEvents=1;fontSize=16;" vertex="1" parent="sUJI07cc3r80qlHOVlr8-10">
          <mxGeometry x="467" width="233" height="40" as="geometry">
            <mxRectangle width="233" height="40" as="alternateBounds" />
          </mxGeometry>
        </mxCell>
        <mxCell id="sUJI07cc3r80qlHOVlr8-14" value="Assets" style="childLayout=tableLayout;recursiveResize=0;strokeColor=#98bf21;fillColor=#A7C942;shadow=1;" vertex="1" parent="1">
          <mxGeometry x="220" y="400" width="280" height="160" as="geometry" />
        </mxCell>
        <mxCell id="sUJI07cc3r80qlHOVlr8-15" style="shape=tableRow;horizontal=0;startSize=0;swimlaneHead=0;swimlaneBody=0;top=0;left=0;bottom=0;right=0;dropTarget=0;collapsible=0;recursiveResize=0;expand=0;fontStyle=0;strokeColor=inherit;fillColor=#ffffff;" vertex="1" parent="sUJI07cc3r80qlHOVlr8-14">
          <mxGeometry width="280" height="33" as="geometry" />
        </mxCell>
        <mxCell id="sUJI07cc3r80qlHOVlr8-16" value="Title 1" style="connectable=0;recursiveResize=0;strokeColor=inherit;fillColor=#A7C942;align=center;fontStyle=1;fontColor=#FFFFFF;html=1;" vertex="1" parent="sUJI07cc3r80qlHOVlr8-15">
          <mxGeometry width="93" height="33" as="geometry">
            <mxRectangle width="93" height="33" as="alternateBounds" />
          </mxGeometry>
        </mxCell>
        <mxCell id="sUJI07cc3r80qlHOVlr8-17" value="Title 2" style="connectable=0;recursiveResize=0;strokeColor=inherit;fillColor=#A7C942;align=center;fontStyle=1;fontColor=#FFFFFF;html=1;" vertex="1" parent="sUJI07cc3r80qlHOVlr8-15">
          <mxGeometry x="93" width="94" height="33" as="geometry">
            <mxRectangle width="94" height="33" as="alternateBounds" />
          </mxGeometry>
        </mxCell>
        <mxCell id="sUJI07cc3r80qlHOVlr8-18" value="Title 3" style="connectable=0;recursiveResize=0;strokeColor=inherit;fillColor=#A7C942;align=center;fontStyle=1;fontColor=#FFFFFF;html=1;" vertex="1" parent="sUJI07cc3r80qlHOVlr8-15">
          <mxGeometry x="187" width="93" height="33" as="geometry">
            <mxRectangle width="93" height="33" as="alternateBounds" />
          </mxGeometry>
        </mxCell>
        <mxCell id="sUJI07cc3r80qlHOVlr8-19" value="" style="shape=tableRow;horizontal=0;startSize=0;swimlaneHead=0;swimlaneBody=0;top=0;left=0;bottom=0;right=0;dropTarget=0;collapsible=0;recursiveResize=0;expand=0;fontStyle=0;strokeColor=inherit;fillColor=#ffffff;" vertex="1" parent="sUJI07cc3r80qlHOVlr8-14">
          <mxGeometry y="33" width="280" height="32" as="geometry" />
        </mxCell>
        <mxCell id="sUJI07cc3r80qlHOVlr8-20" value="Value 1" style="connectable=0;recursiveResize=0;strokeColor=inherit;fillColor=inherit;align=center;whiteSpace=wrap;html=1;" vertex="1" parent="sUJI07cc3r80qlHOVlr8-19">
          <mxGeometry width="93" height="32" as="geometry">
            <mxRectangle width="93" height="32" as="alternateBounds" />
          </mxGeometry>
        </mxCell>
        <mxCell id="sUJI07cc3r80qlHOVlr8-21" value="Value 2" style="connectable=0;recursiveResize=0;strokeColor=inherit;fillColor=inherit;align=center;whiteSpace=wrap;html=1;" vertex="1" parent="sUJI07cc3r80qlHOVlr8-19">
          <mxGeometry x="93" width="94" height="32" as="geometry">
            <mxRectangle width="94" height="32" as="alternateBounds" />
          </mxGeometry>
        </mxCell>
        <mxCell id="sUJI07cc3r80qlHOVlr8-22" value="Value 3" style="connectable=0;recursiveResize=0;strokeColor=inherit;fillColor=inherit;align=center;whiteSpace=wrap;html=1;" vertex="1" parent="sUJI07cc3r80qlHOVlr8-19">
          <mxGeometry x="187" width="93" height="32" as="geometry">
            <mxRectangle width="93" height="32" as="alternateBounds" />
          </mxGeometry>
        </mxCell>
        <mxCell id="sUJI07cc3r80qlHOVlr8-23" value="" style="shape=tableRow;horizontal=0;startSize=0;swimlaneHead=0;swimlaneBody=0;top=0;left=0;bottom=0;right=0;dropTarget=0;collapsible=0;recursiveResize=0;expand=0;fontStyle=1;strokeColor=inherit;fillColor=#EAF2D3;" vertex="1" parent="sUJI07cc3r80qlHOVlr8-14">
          <mxGeometry y="65" width="280" height="31" as="geometry" />
        </mxCell>
        <mxCell id="sUJI07cc3r80qlHOVlr8-24" value="Value 4" style="connectable=0;recursiveResize=0;strokeColor=inherit;fillColor=inherit;whiteSpace=wrap;html=1;" vertex="1" parent="sUJI07cc3r80qlHOVlr8-23">
          <mxGeometry width="93" height="31" as="geometry">
            <mxRectangle width="93" height="31" as="alternateBounds" />
          </mxGeometry>
        </mxCell>
        <mxCell id="sUJI07cc3r80qlHOVlr8-25" value="Value 5" style="connectable=0;recursiveResize=0;strokeColor=inherit;fillColor=inherit;whiteSpace=wrap;html=1;" vertex="1" parent="sUJI07cc3r80qlHOVlr8-23">
          <mxGeometry x="93" width="94" height="31" as="geometry">
            <mxRectangle width="94" height="31" as="alternateBounds" />
          </mxGeometry>
        </mxCell>
        <mxCell id="sUJI07cc3r80qlHOVlr8-26" value="Value 6" style="connectable=0;recursiveResize=0;strokeColor=inherit;fillColor=inherit;whiteSpace=wrap;html=1;" vertex="1" parent="sUJI07cc3r80qlHOVlr8-23">
          <mxGeometry x="187" width="93" height="31" as="geometry">
            <mxRectangle width="93" height="31" as="alternateBounds" />
          </mxGeometry>
        </mxCell>
        <mxCell id="sUJI07cc3r80qlHOVlr8-27" value="" style="shape=tableRow;horizontal=0;startSize=0;swimlaneHead=0;swimlaneBody=0;top=0;left=0;bottom=0;right=0;dropTarget=0;collapsible=0;recursiveResize=0;expand=0;fontStyle=0;strokeColor=inherit;fillColor=#ffffff;" vertex="1" parent="sUJI07cc3r80qlHOVlr8-14">
          <mxGeometry y="96" width="280" height="33" as="geometry" />
        </mxCell>
        <mxCell id="sUJI07cc3r80qlHOVlr8-28" value="Value 7" style="connectable=0;recursiveResize=0;strokeColor=inherit;fillColor=inherit;fontStyle=0;align=center;whiteSpace=wrap;html=1;" vertex="1" parent="sUJI07cc3r80qlHOVlr8-27">
          <mxGeometry width="93" height="33" as="geometry">
            <mxRectangle width="93" height="33" as="alternateBounds" />
          </mxGeometry>
        </mxCell>
        <mxCell id="sUJI07cc3r80qlHOVlr8-29" value="Value 8" style="connectable=0;recursiveResize=0;strokeColor=inherit;fillColor=inherit;fontStyle=0;align=center;whiteSpace=wrap;html=1;" vertex="1" parent="sUJI07cc3r80qlHOVlr8-27">
          <mxGeometry x="93" width="94" height="33" as="geometry">
            <mxRectangle width="94" height="33" as="alternateBounds" />
          </mxGeometry>
        </mxCell>
        <mxCell id="sUJI07cc3r80qlHOVlr8-30" value="Value 9" style="connectable=0;recursiveResize=0;strokeColor=inherit;fillColor=inherit;fontStyle=0;align=center;whiteSpace=wrap;html=1;" vertex="1" parent="sUJI07cc3r80qlHOVlr8-27">
          <mxGeometry x="187" width="93" height="33" as="geometry">
            <mxRectangle width="93" height="33" as="alternateBounds" />
          </mxGeometry>
        </mxCell>
        <mxCell id="sUJI07cc3r80qlHOVlr8-31" value="" style="shape=tableRow;horizontal=0;startSize=0;swimlaneHead=0;swimlaneBody=0;top=0;left=0;bottom=0;right=0;dropTarget=0;collapsible=0;recursiveResize=0;expand=0;fontStyle=1;strokeColor=inherit;fillColor=#EAF2D3;" vertex="1" parent="sUJI07cc3r80qlHOVlr8-14">
          <mxGeometry y="129" width="280" height="31" as="geometry" />
        </mxCell>
        <mxCell id="sUJI07cc3r80qlHOVlr8-32" value="Value 10" style="connectable=0;recursiveResize=0;strokeColor=inherit;fillColor=inherit;whiteSpace=wrap;html=1;" vertex="1" parent="sUJI07cc3r80qlHOVlr8-31">
          <mxGeometry width="93" height="31" as="geometry">
            <mxRectangle width="93" height="31" as="alternateBounds" />
          </mxGeometry>
        </mxCell>
        <mxCell id="sUJI07cc3r80qlHOVlr8-33" value="Value 11" style="connectable=0;recursiveResize=0;strokeColor=inherit;fillColor=inherit;whiteSpace=wrap;html=1;" vertex="1" parent="sUJI07cc3r80qlHOVlr8-31">
          <mxGeometry x="93" width="94" height="31" as="geometry">
            <mxRectangle width="94" height="31" as="alternateBounds" />
          </mxGeometry>
        </mxCell>
        <mxCell id="sUJI07cc3r80qlHOVlr8-34" value="Value 12" style="connectable=0;recursiveResize=0;strokeColor=inherit;fillColor=inherit;whiteSpace=wrap;html=1;" vertex="1" parent="sUJI07cc3r80qlHOVlr8-31">
          <mxGeometry x="187" width="93" height="31" as="geometry">
            <mxRectangle width="93" height="31" as="alternateBounds" />
          </mxGeometry>
        </mxCell>
        <mxCell id="sUJI07cc3r80qlHOVlr8-35" value="&lt;ul&gt;&lt;li&gt;Value 1&lt;/li&gt;&lt;li&gt;Value 2&lt;/li&gt;&lt;li&gt;Value 3&lt;/li&gt;&lt;/ul&gt;" style="text;strokeColor=none;fillColor=none;html=1;whiteSpace=wrap;verticalAlign=middle;overflow=hidden;" vertex="1" parent="1">
          <mxGeometry x="360" y="280" width="100" height="80" as="geometry" />
        </mxCell>
        <mxCell id="sUJI07cc3r80qlHOVlr8-36" value="&lt;ol&gt;&lt;li&gt;Value 1&lt;/li&gt;&lt;li&gt;Value 2&lt;/li&gt;&lt;li&gt;Value 3&lt;/li&gt;&lt;/ol&gt;" style="text;strokeColor=none;fillColor=none;html=1;whiteSpace=wrap;verticalAlign=middle;overflow=hidden;" vertex="1" parent="1">
          <mxGeometry x="360" y="280" width="100" height="80" as="geometry" />
        </mxCell>
        <mxCell id="sUJI07cc3r80qlHOVlr8-37" value="" style="shape=table;html=1;whiteSpace=wrap;startSize=0;container=1;collapsible=0;childLayout=tableLayout;columnLines=0;rowLines=0;fontSize=16;strokeColor=default;" vertex="1" parent="1">
          <mxGeometry x="320" y="260" width="180" height="120" as="geometry" />
        </mxCell>
        <mxCell id="sUJI07cc3r80qlHOVlr8-38" value="" style="shape=tableRow;horizontal=0;startSize=0;swimlaneHead=0;swimlaneBody=0;top=0;left=0;bottom=0;right=0;collapsible=0;dropTarget=0;fillColor=none;points=[[0,0.5],[1,0.5]];portConstraint=eastwest;fontSize=16;strokeColor=inherit;" vertex="1" parent="sUJI07cc3r80qlHOVlr8-37">
          <mxGeometry width="180" height="40" as="geometry" />
        </mxCell>
        <mxCell id="sUJI07cc3r80qlHOVlr8-39" value="Value 1" style="shape=partialRectangle;html=1;whiteSpace=wrap;connectable=0;fillColor=none;top=0;left=0;bottom=0;right=0;overflow=hidden;fontSize=12;strokeColor=inherit;" vertex="1" parent="sUJI07cc3r80qlHOVlr8-38">
          <mxGeometry width="60" height="40" as="geometry">
            <mxRectangle width="60" height="40" as="alternateBounds" />
          </mxGeometry>
        </mxCell>
        <mxCell id="sUJI07cc3r80qlHOVlr8-40" value="Value 2" style="shape=partialRectangle;html=1;whiteSpace=wrap;connectable=0;fillColor=none;top=0;left=0;bottom=0;right=0;overflow=hidden;fontSize=12;strokeColor=inherit;" vertex="1" parent="sUJI07cc3r80qlHOVlr8-38">
          <mxGeometry x="60" width="60" height="40" as="geometry">
            <mxRectangle width="60" height="40" as="alternateBounds" />
          </mxGeometry>
        </mxCell>
        <mxCell id="sUJI07cc3r80qlHOVlr8-41" value="Value 3" style="shape=partialRectangle;html=1;whiteSpace=wrap;connectable=0;fillColor=none;top=0;left=0;bottom=0;right=0;overflow=hidden;fontSize=12;strokeColor=inherit;" vertex="1" parent="sUJI07cc3r80qlHOVlr8-38">
          <mxGeometry x="120" width="60" height="40" as="geometry">
            <mxRectangle width="60" height="40" as="alternateBounds" />
          </mxGeometry>
        </mxCell>
        <mxCell id="sUJI07cc3r80qlHOVlr8-42" value="" style="shape=tableRow;horizontal=0;startSize=0;swimlaneHead=0;swimlaneBody=0;top=0;left=0;bottom=0;right=0;collapsible=0;dropTarget=0;fillColor=none;points=[[0,0.5],[1,0.5]];portConstraint=eastwest;fontSize=16;strokeColor=inherit;" vertex="1" parent="sUJI07cc3r80qlHOVlr8-37">
          <mxGeometry y="40" width="180" height="40" as="geometry" />
        </mxCell>
        <mxCell id="sUJI07cc3r80qlHOVlr8-43" value="Value 4" style="shape=partialRectangle;html=1;whiteSpace=wrap;connectable=0;fillColor=none;top=0;left=0;bottom=0;right=0;overflow=hidden;fontSize=12;strokeColor=inherit;" vertex="1" parent="sUJI07cc3r80qlHOVlr8-42">
          <mxGeometry width="60" height="40" as="geometry">
            <mxRectangle width="60" height="40" as="alternateBounds" />
          </mxGeometry>
        </mxCell>
        <mxCell id="sUJI07cc3r80qlHOVlr8-44" value="Value 5" style="shape=partialRectangle;html=1;whiteSpace=wrap;connectable=0;fillColor=none;top=0;left=0;bottom=0;right=0;overflow=hidden;fontSize=12;strokeColor=inherit;" vertex="1" parent="sUJI07cc3r80qlHOVlr8-42">
          <mxGeometry x="60" width="60" height="40" as="geometry">
            <mxRectangle width="60" height="40" as="alternateBounds" />
          </mxGeometry>
        </mxCell>
        <mxCell id="sUJI07cc3r80qlHOVlr8-45" value="Value 6" style="shape=partialRectangle;html=1;whiteSpace=wrap;connectable=0;fillColor=none;top=0;left=0;bottom=0;right=0;overflow=hidden;fontSize=12;strokeColor=inherit;" vertex="1" parent="sUJI07cc3r80qlHOVlr8-42">
          <mxGeometry x="120" width="60" height="40" as="geometry">
            <mxRectangle width="60" height="40" as="alternateBounds" />
          </mxGeometry>
        </mxCell>
        <mxCell id="sUJI07cc3r80qlHOVlr8-46" value="" style="shape=tableRow;horizontal=0;startSize=0;swimlaneHead=0;swimlaneBody=0;top=0;left=0;bottom=0;right=0;collapsible=0;dropTarget=0;fillColor=none;points=[[0,0.5],[1,0.5]];portConstraint=eastwest;fontSize=16;strokeColor=inherit;" vertex="1" parent="sUJI07cc3r80qlHOVlr8-37">
          <mxGeometry y="80" width="180" height="40" as="geometry" />
        </mxCell>
        <mxCell id="sUJI07cc3r80qlHOVlr8-47" value="Value 7" style="shape=partialRectangle;html=1;whiteSpace=wrap;connectable=0;fillColor=none;top=0;left=0;bottom=0;right=0;overflow=hidden;fontSize=12;strokeColor=inherit;" vertex="1" parent="sUJI07cc3r80qlHOVlr8-46">
          <mxGeometry width="60" height="40" as="geometry">
            <mxRectangle width="60" height="40" as="alternateBounds" />
          </mxGeometry>
        </mxCell>
        <mxCell id="sUJI07cc3r80qlHOVlr8-48" value="Value 8" style="shape=partialRectangle;html=1;whiteSpace=wrap;connectable=0;fillColor=none;top=0;left=0;bottom=0;right=0;overflow=hidden;fontSize=12;strokeColor=inherit;" vertex="1" parent="sUJI07cc3r80qlHOVlr8-46">
          <mxGeometry x="60" width="60" height="40" as="geometry">
            <mxRectangle width="60" height="40" as="alternateBounds" />
          </mxGeometry>
        </mxCell>
        <mxCell id="sUJI07cc3r80qlHOVlr8-49" value="Value 9" style="shape=partialRectangle;html=1;whiteSpace=wrap;connectable=0;fillColor=none;top=0;left=0;bottom=0;right=0;overflow=hidden;fontSize=12;strokeColor=inherit;" vertex="1" parent="sUJI07cc3r80qlHOVlr8-46">
          <mxGeometry x="120" width="60" height="40" as="geometry">
            <mxRectangle width="60" height="40" as="alternateBounds" />
          </mxGeometry>
        </mxCell>
        <mxCell id="sUJI07cc3r80qlHOVlr8-50" value="&lt;table border=&quot;1&quot; width=&quot;100%&quot; height=&quot;100%&quot; cellpadding=&quot;4&quot; style=&quot;width:100%;height:100%;border-collapse:collapse;&quot;&gt;&lt;tr&gt;&lt;th align=&quot;center&quot;&gt;&lt;b&gt;Title&lt;/b&gt;&lt;/th&gt;&lt;/tr&gt;&lt;tr&gt;&lt;td align=&quot;center&quot;&gt;Section 1.1&#xa;Section 1.2&#xa;Section 1.3&lt;/td&gt;&lt;/tr&gt;&lt;tr&gt;&lt;td align=&quot;center&quot;&gt;Section 2.1&#xa;Section 2.2&#xa;Section 2.3&lt;/td&gt;&lt;/tr&gt;&lt;/table&gt;" style="text;html=1;whiteSpace=wrap;strokeColor=none;fillColor=none;overflow=fill;" vertex="1" parent="1">
          <mxGeometry x="320" y="230" width="180" height="180" as="geometry" />
        </mxCell>
        <mxCell id="sUJI07cc3r80qlHOVlr8-51" value="" style="childLayout=tableLayout;recursiveResize=0;shadow=0;fillColor=none;" vertex="1" parent="1">
          <mxGeometry x="440" y="50" width="180" height="147" as="geometry" />
        </mxCell>
        <mxCell id="sUJI07cc3r80qlHOVlr8-52" value="" style="shape=tableRow;horizontal=0;startSize=0;swimlaneHead=0;swimlaneBody=0;top=0;left=0;bottom=0;right=0;dropTarget=0;collapsible=0;recursiveResize=0;expand=0;fontStyle=0;fillColor=none;strokeColor=inherit;" vertex="1" parent="sUJI07cc3r80qlHOVlr8-51">
          <mxGeometry width="180" height="47" as="geometry" />
        </mxCell>
        <mxCell id="sUJI07cc3r80qlHOVlr8-53" value="Value 1" style="connectable=0;recursiveResize=0;strokeColor=inherit;fillColor=none;align=center;whiteSpace=wrap;html=1;" vertex="1" parent="sUJI07cc3r80qlHOVlr8-52">
          <mxGeometry width="60" height="47" as="geometry">
            <mxRectangle width="60" height="47" as="alternateBounds" />
          </mxGeometry>
        </mxCell>
        <mxCell id="sUJI07cc3r80qlHOVlr8-54" value="Value 2" style="connectable=0;recursiveResize=0;strokeColor=inherit;fillColor=none;align=center;whiteSpace=wrap;html=1;" vertex="1" parent="sUJI07cc3r80qlHOVlr8-52">
          <mxGeometry x="60" width="60" height="47" as="geometry">
            <mxRectangle width="60" height="47" as="alternateBounds" />
          </mxGeometry>
        </mxCell>
        <mxCell id="sUJI07cc3r80qlHOVlr8-55" value="Value 3" style="connectable=0;recursiveResize=0;strokeColor=inherit;fillColor=none;align=center;whiteSpace=wrap;html=1;" vertex="1" parent="sUJI07cc3r80qlHOVlr8-52">
          <mxGeometry x="120" width="60" height="47" as="geometry">
            <mxRectangle width="60" height="47" as="alternateBounds" />
          </mxGeometry>
        </mxCell>
        <mxCell id="sUJI07cc3r80qlHOVlr8-56" style="shape=tableRow;horizontal=0;startSize=0;swimlaneHead=0;swimlaneBody=0;top=0;left=0;bottom=0;right=0;dropTarget=0;collapsible=0;recursiveResize=0;expand=0;fontStyle=0;fillColor=none;strokeColor=inherit;" vertex="1" parent="sUJI07cc3r80qlHOVlr8-51">
          <mxGeometry y="47" width="180" height="53" as="geometry" />
        </mxCell>
        <mxCell id="sUJI07cc3r80qlHOVlr8-57" value="Value 4" style="connectable=0;recursiveResize=0;strokeColor=inherit;fillColor=none;align=center;whiteSpace=wrap;html=1;" vertex="1" parent="sUJI07cc3r80qlHOVlr8-56">
          <mxGeometry width="60" height="53" as="geometry">
            <mxRectangle width="60" height="53" as="alternateBounds" />
          </mxGeometry>
        </mxCell>
        <mxCell id="sUJI07cc3r80qlHOVlr8-58" value="Value 5" style="connectable=0;recursiveResize=0;strokeColor=inherit;fillColor=none;align=center;whiteSpace=wrap;html=1;" vertex="1" parent="sUJI07cc3r80qlHOVlr8-56">
          <mxGeometry x="60" width="60" height="53" as="geometry">
            <mxRectangle width="60" height="53" as="alternateBounds" />
          </mxGeometry>
        </mxCell>
        <mxCell id="sUJI07cc3r80qlHOVlr8-59" value="Value 6" style="connectable=0;recursiveResize=0;strokeColor=inherit;fillColor=none;align=center;whiteSpace=wrap;html=1;" vertex="1" parent="sUJI07cc3r80qlHOVlr8-56">
          <mxGeometry x="120" width="60" height="53" as="geometry">
            <mxRectangle width="60" height="53" as="alternateBounds" />
          </mxGeometry>
        </mxCell>
        <mxCell id="sUJI07cc3r80qlHOVlr8-60" style="shape=tableRow;horizontal=0;startSize=0;swimlaneHead=0;swimlaneBody=0;top=0;left=0;bottom=0;right=0;dropTarget=0;collapsible=0;recursiveResize=0;expand=0;fontStyle=0;fillColor=none;strokeColor=inherit;" vertex="1" parent="sUJI07cc3r80qlHOVlr8-51">
          <mxGeometry y="100" width="180" height="47" as="geometry" />
        </mxCell>
        <mxCell id="sUJI07cc3r80qlHOVlr8-61" value="Value 7" style="connectable=0;recursiveResize=0;strokeColor=inherit;fillColor=none;align=center;whiteSpace=wrap;html=1;" vertex="1" parent="sUJI07cc3r80qlHOVlr8-60">
          <mxGeometry width="60" height="47" as="geometry">
            <mxRectangle width="60" height="47" as="alternateBounds" />
          </mxGeometry>
        </mxCell>
        <mxCell id="sUJI07cc3r80qlHOVlr8-62" value="Value 8" style="connectable=0;recursiveResize=0;strokeColor=inherit;fillColor=none;align=center;whiteSpace=wrap;html=1;" vertex="1" parent="sUJI07cc3r80qlHOVlr8-60">
          <mxGeometry x="60" width="60" height="47" as="geometry">
            <mxRectangle width="60" height="47" as="alternateBounds" />
          </mxGeometry>
        </mxCell>
        <mxCell id="sUJI07cc3r80qlHOVlr8-63" value="Value 9" style="connectable=0;recursiveResize=0;strokeColor=inherit;fillColor=none;align=center;whiteSpace=wrap;html=1;" vertex="1" parent="sUJI07cc3r80qlHOVlr8-60">
          <mxGeometry x="120" width="60" height="47" as="geometry">
            <mxRectangle width="60" height="47" as="alternateBounds" />
          </mxGeometry>
        </mxCell>
      </root>
    </mxGraphModel>
  </diagram>
</mxfile>
